HIERARCHY
ROOT hip
{
  OFFSET 0 0 0
  CHANNELS 6 Xposition Yposition Zposition Zrotation Yrotation Xrotation
  JOINT abdomen
  {
    OFFSET 0 20.6881 -0.73152
    CHANNELS 3 Zrotation Xrotation Yrotation
    JOINT chest
    {
      OFFSET 0 11.7043 -0.48768
      CHANNELS 3 Zrotation Xrotation Yrotation
      JOINT neck
      {
        OFFSET 0 22.1894 -2.19456
        CHANNELS 3 Zrotation Xrotation Yrotation
        JOINT head
        {
          OFFSET -0.24384 7.07133 1.2192
          CHANNELS 3 Zrotation Xrotation Yrotation
          JOINT leftEye
          {
            OFFSET 4.14528 8.04674 8.04672
            CHANNELS 3 Zrotation Xrotation Yrotation
            End Site
            {
              OFFSET 1 0 0
            }
          }
          JOINT rightEye
          {
            OFFSET -3.6576 8.04674 8.04672
            CHANNELS 3 Zrotation Xrotation Yrotation
            End Site
            {
              OFFSET 1 0 0
            }
          }
        }
      }
      JOINT rCollar
      {
        OFFSET -2.68224 19.2634 -4.8768
        CHANNELS 3 Zrotation Xrotation Yrotation
        JOINT rShldr
        {
          OFFSET -8.77824 -1.95073 1.46304
          CHANNELS 3 Zrotation Xrotation Yrotation
          JOINT rForeArm
          {
            OFFSET -28.1742 -1.7115 0.48768
            CHANNELS 3 Zrotation Xrotation Yrotation
            JOINT rHand
            {
              OFFSET -22.5879 0.773209 7.07136
              CHANNELS 3 Zrotation Xrotation Yrotation
              JOINT rThumb1
              {
                OFFSET -1.2192 -0.487915 3.41376
                CHANNELS 3 Zrotation Xrotation Yrotation
                JOINT rThumb2
                {
                  OFFSET -3.37035 -0.52449 3.41376
                  CHANNELS 3 Zrotation Xrotation Yrotation
                  End Site
                  {
                    OFFSET -1.78271 -1.18214 1.43049
                  }
                }
              }
              JOINT rIndex1
              {
                OFFSET -7.75947 0.938293 5.60832
                CHANNELS 3 Zrotation Xrotation Yrotation
                JOINT rIndex2
                {
                  OFFSET -2.54057 -0.884171 1.56538
                  CHANNELS 3 Zrotation Xrotation Yrotation
                  End Site
                  {
                    OFFSET -1.62519 -0.234802 1.16502
                  }
                }
              }
              JOINT rMid1
              {
                OFFSET -8.24714 1.18213 3.41376
                CHANNELS 3 Zrotation Xrotation Yrotation
                JOINT rMid2
                {
                  OFFSET -3.10165 -0.590103 1.0647
                  CHANNELS 3 Zrotation Xrotation Yrotation
                  End Site
                  {
                    OFFSET -2.48547 -0.328903 0.83742
                  }
                }
              }
              JOINT rRing1
              {
                OFFSET -8.82822 0.546677 1.51678
                CHANNELS 3 Zrotation Xrotation Yrotation
                JOINT rRing2
                {
                  OFFSET -2.60934 -0.819778 -0.0198488
                  CHANNELS 3 Zrotation Xrotation Yrotation
                  End Site
                  {
                    OFFSET -2.33842 -0.294052 0.168128
                  }
                }
              }
              JOINT rPinky1
              {
                OFFSET -8.27202 -0.0477905 -0.4584
                CHANNELS 3 Zrotation Xrotation Yrotation
                JOINT rPinky2
                {
                  OFFSET -1.82734 -0.647385 -0.700984
                  CHANNELS 3 Zrotation Xrotation Yrotation
                  End Site
                  {
                    OFFSET -1.69225 -0.51767 -0.607171
                  }
                }
              }
            }
          }
        }
      }
      JOINT lCollar
      {
        OFFSET 2.68224 19.2634 -4.8768
        CHANNELS 3 Zrotation Xrotation Yrotation
        JOINT lShldr
        {
          OFFSET 8.77824 -1.95073 1.46304
          CHANNELS 3 Zrotation Xrotation Yrotation
          JOINT lForeArm
          {
            OFFSET 28.1742 -1.7115 0.48768
            CHANNELS 3 Zrotation Xrotation Yrotation
            JOINT lHand
            {
              OFFSET 22.5879 0.773209 7.07136
              CHANNELS 3 Zrotation Xrotation Yrotation
              JOINT lThumb1
              {
                OFFSET 1.2192 -0.487915 3.41376
                CHANNELS 3 Zrotation Xrotation Yrotation
                JOINT lThumb2
                {
                  OFFSET 3.37035 -0.52449 3.41376
                  CHANNELS 3 Zrotation Xrotation Yrotation
                  End Site
                  {
                    OFFSET 1.78271 -1.18214 1.43049
                  }
                }
              }
              JOINT lIndex1
              {
                OFFSET 7.75947 0.938293 5.60832
                CHANNELS 3 Zrotation Xrotation Yrotation
                JOINT lIndex2
                {
                  OFFSET 2.54057 -0.884171 1.56538
                  CHANNELS 3 Zrotation Xrotation Yrotation
                  End Site
                  {
                    OFFSET 1.62519 -0.234802 1.16502
                  }
                }
              }
              JOINT lMid1
              {
                OFFSET 8.24714 1.18213 3.41376
                CHANNELS 3 Zrotation Xrotation Yrotation
                JOINT lMid2
                {
                  OFFSET 3.10165 -0.590103 1.0647
                  CHANNELS 3 Zrotation Xrotation Yrotation
                  End Site
                  {
                    OFFSET 2.48547 -0.328903 0.83742
                  }
                }
              }
              JOINT lRing1
              {
                OFFSET 8.82822 0.546677 1.51678
                CHANNELS 3 Zrotation Xrotation Yrotation
                JOINT lRing2
                {
                  OFFSET 2.60934 -0.819778 -0.0198488
                  CHANNELS 3 Zrotation Xrotation Yrotation
                  End Site
                  {
                    OFFSET 2.33842 -0.294052 0.168128
                  }
                }
              }
              JOINT lPinky1
              {
                OFFSET 8.27202 -0.0477905 -0.4584
                CHANNELS 3 Zrotation Xrotation Yrotation
                JOINT lPinky2
                {
                  OFFSET 1.82734 -0.647385 -0.700984
                  CHANNELS 3 Zrotation Xrotation Yrotation
                  End Site
                  {
                    OFFSET 1.69225 -0.51767 -0.607171
                  }
                }
              }
            }
          }
        }
      }
    }
  }
  JOINT rButtock
  {
    OFFSET -8.77824 4.35084 1.2192
    CHANNELS 3 Zrotation Xrotation Yrotation
    JOINT rThigh
    {
      OFFSET 0 -1.70687 -2.19456
      CHANNELS 3 Zrotation Xrotation Yrotation
      JOINT rShin
      {
        OFFSET 0 -36.8199 0.73152
        CHANNELS 3 Zrotation Xrotation Yrotation
        JOINT rFoot
        {
          OFFSET 0.73152 -45.1104 -5.12064
          CHANNELS 3 Zrotation Xrotation Yrotation
          End Site
          {
            OFFSET -1.1221 -3.69964 12.103
          }
        }
      }
    }
  }
  JOINT lButtock
  {
    OFFSET 8.77824 4.35084 1.2192
    CHANNELS 3 Zrotation Xrotation Yrotation
    JOINT lThigh
    {
      OFFSET 0 -1.70687 -2.19456
      CHANNELS 3 Zrotation Xrotation Yrotation
      JOINT lShin
      {
        OFFSET 0 -36.8199 0.73152
        CHANNELS 3 Zrotation Xrotation Yrotation
        JOINT lFoot
        {
          OFFSET -0.73152 -45.1104 -5.12064
          CHANNELS 3 Zrotation Xrotation Yrotation
          End Site
          {
            OFFSET 1.1221 -3.69964 12.103
          }
        }
      }
    }
  }
}
MOTION
Frames:	6
Frame Time:	0.00833333
48.6148 85.5269 257.763 0.0 0.0 0.0 2.34101 -0.00222418 0.0637214 0.646596 0.00594984 0.111938 -4.67162e-15 -7.95139e-16 -9.93923e-17 -1.32316e-14 3.18055e-15 -2.74882e-16 -0.0 0.0 0.0 -0.0 0.0 0.0 -2.28786e-15 -7.51266e-17 4.96962e-17 -4.33508e-14 -1.50952e-15 -1.98785e-16 -8.20136e-13 1.86261e-13 -1.59028e-14 -9.26568e-12 -5.26183e-13 -1.7175e-13 -2.189e-11 -7.39754e-13 -3.94389e-13 -3.78176e-11 -1.2754e-12 -6.91771e-13 -2.1885e-11 -7.37491e-13 -4.07111e-13 7.73091 5.47488 0.417314 -2.18896e-11 -7.40175e-13 -3.94389e-13 2.90554 0.965183 0.102902 -2.18858e-11 -7.39578e-13 -3.98364e-13 10.2786 0.731801 0.0259123 -2.18955e-11 -7.37491e-13 -3.94389e-13 2.22167 -0.733487 -0.20892 -2.28435e-15 -7.31854e-17 -1.49089e-16 -4.89115e-14 -1.42255e-15 -2.18663e-15 -8.01003e-13 -2.97382e-13 0.0 -9.29834e-12 -3.11098e-14 -2.00375e-13 -2.19127e-11 -7.18821e-13 -4.32555e-13 -3.78232e-11 -1.2436e-12 -7.23576e-13 -2.19176e-11 -7.196e-13 -4.29375e-13 -7.73091 5.47488 -0.417314 -2.19121e-11 -7.19104e-13 -4.29375e-13 -2.90554 0.965183 -0.102902 -2.19241e-11 -7.18308e-13 -4.20628e-13 -10.2786 0.731801 -0.0259123 -2.19049e-11 -7.17613e-13 -4.23014e-13 -2.22167 -0.733487 0.20892 -2.03217e-16 0.0 -3.88251e-19 2.2155 -8.02973 -0.231361 0.00607161 8.97368 0.152071 -0.477707 -0.951456 0.0348658 2.03217e-16 0.0 3.88251e-19 1.35208 -1.92788 -0.00535827 0.00846642 -2.07867 0.0694587 0.423843 3.99897 -0.127287
48.5486 84.7 245.138 -179.573 -6.2254 175.846 3.22684 1.44136 1.08332 0.0295697 -2.24058 0.40152 2.62344 3.17866 4.5915 -3.64855 -2.29499 8.37918 -0.0 0.0 0.0 -0.0 0.0 0.0 -1.9834e-15 -2.37596e-14 8.41108e-15 22.3227 14.1481 -2.23079 -5.32324 -2.68843 8.0007 0.00881997 2.08557 0.292408 -1.5778e-10 1.61806e-10 1.97809e-11 -2.72388e-10 2.78388e-10 3.52019e-11 -1.57775e-10 1.61809e-10 1.97669e-11 7.73091 5.47488 0.417314 -1.57779e-10 1.61803e-10 1.97816e-11 2.90554 0.965183 0.102902 -1.57775e-10 1.61805e-10 1.97758e-11 10.2786 0.731801 0.0259123 -1.57785e-10 1.61805e-10 1.97797e-11 2.22167 -0.733487 -0.20892 -2.04756e-15 -2.37588e-14 8.21462e-15 -22.0766 11.746 1.81179 5.41481 -2.75676 -8.11072 -0.0345551 4.1258 -0.574427 1.20176e-11 -5.61679e-11 -7.52089e-11 1.95309e-11 -9.89275e-11 -1.30551e-10 1.20116e-11 -5.61683e-11 -7.52002e-11 -7.73091 5.47488 -0.417314 1.2018e-11 -5.61684e-11 -7.52067e-11 -2.90554 0.965183 -0.102902 1.2007e-11 -5.61683e-11 -7.52e-11 -10.2786 0.731801 -0.0259123 1.20249e-11 -5.61683e-11 -7.52047e-11 -2.22167 -0.733487 0.20892 -2.03217e-16 0.0 -3.88251e-19 3.99043 -8.518 4.07283 0.0392431 14.932 0.302971 -2.2589 -6.67564 -9.21516 2.03217e-16 0.0 3.88251e-19 -0.235786 -3.86429 -6.53146 -0.0243821 5.59685 -0.112319 1.05495 -2.10327 4.40061
48.606 84.7042 245.233 -179.519 -5.9434 176.314 4.11887 2.98854 2.14585 -0.600362 -4.61697 0.704867 4.84019 6.46735 9.49256 -6.78529 -4.55024 17.2809 -0.0 0.0 0.0 -0.0 0.0 0.0 -2.34506e-15 -5.01264e-14 1.75676e-14 47.2679 29.0358 -5.08342 -10.1426 -5.35584 16.5147 -0.00504831 4.27927 0.601294 -3.13458e-10 3.50904e-10 4.11013e-11 -5.41148e-10 6.03796e-10 7.32251e-11 -3.13452e-10 3.50906e-10 4.10858e-11 7.73091 5.47488 0.417314 -3.13456e-10 3.50898e-10 4.11027e-11 2.90554 0.965183 0.102902 -3.13452e-10 3.509e-10 4.1095e-11 10.2786 0.731801 0.0259123 -3.13463e-10 3.50899e-10 4.10987e-11 2.22167 -0.733487 -0.20892 -2.48184e-15 -5.01269e-14 1.7375e-14 -46.2931 24.1317 3.99415 10.2993 -5.48705 -16.7447 0.0198078 8.49291 -1.19264 5.63221e-11 -1.08498e-10 -1.53807e-10 9.4741e-11 -1.91434e-10 -2.67131e-10 5.63148e-11 -1.08498e-10 -1.53793e-10 -7.73091 5.47488 -0.417314 5.63223e-11 -1.08499e-10 -1.53806e-10 -2.90554 0.965183 -0.102902 5.63124e-11 -1.08499e-10 -1.53801e-10 -10.2786 0.731801 -0.0259123 5.63289e-11 -1.085e-10 -1.53809e-10 -2.22167 -0.733487 0.20892 -2.03217e-16 0.0 -3.88251e-19 5.95414 -8.955 8.62878 0.0376491 21.2311 0.475985 -6.16229 -12.2087 -19.3307 2.03217e-16 0.0 3.88251e-19 -2.39252 -5.78444 -13.4753 -0.00499319 13.7186 -0.312353 2.77541 -8.45786 9.28062
48.6891 84.711 245.315 -179.363 -5.6128 176.856 4.84408 4.32286 3.13041 -1.13592 -6.73282 0.986567 6.34122 9.28986 13.9397 -8.99355 -6.29831 25.2804 -0.0 0.0 0.0 -0.0 0.0 0.0 -1.37449e-15 -7.11284e-14 2.51338e-14 71.239 42.1399 -8.76693 -13.7747 -7.43756 24.1919 -0.0377251 6.25604 0.881896 -4.2956e-10 4.86898e-10 6.01314e-11 -7.41528e-10 8.37715e-10 1.06989e-10 -4.29554e-10 4.86901e-10 6.0115e-11 7.73091 5.47488 0.417314 -4.29557e-10 4.8689e-10 6.01336e-11 2.90554 0.965183 0.102902 -4.29553e-10 4.86894e-10 6.01242e-11 10.2786 0.731801 0.0259123 -4.29565e-10 4.86891e-10 6.01279e-11 2.22167 -0.733487 -0.20892 -1.57398e-15 -7.113e-14 2.4942e-14 -68.8738 35.0808 6.50744 13.964 -7.60876 -24.5338 0.149499 12.3724 -1.7597 7.98781e-11 -1.67066e-10 -2.24761e-10 1.34239e-10 -2.94295e-10 -3.90207e-10 7.98699e-11 -1.67066e-10 -2.24742e-10 -7.73091 5.47488 -0.417314 7.98783e-11 -1.67067e-10 -2.24761e-10 -2.90554 0.965183 -0.102902 7.98693e-11 -1.67068e-10 -2.24759e-10 -10.2786 0.731801 -0.0259123 7.98844e-11 -1.6707e-10 -2.24768e-10 -2.22167 -0.733487 0.20892 -2.03217e-16 0.0 -3.88251e-19 7.75695 -9.32803 12.7125 -0.000134788 26.8478 0.647609 -11.3106 -16.2408 -28.7744 2.03217e-16 0.0 3.88251e-19 -4.713 -7.36016 -19.7079 0.063619 20.9472 -0.507732 5.24819 -13.9256 13.8621
48.7198 84.7314 245.371 -179.526 -5.4869 177.288 5.2613 5.13012 3.91232 -1.48251 -8.198 1.20885 7.12945 11.1809 17.0953 -10.2224 -7.33365 30.8905 -0.0 0.0 0.0 -0.0 0.0 0.0 2.92666e-15 -7.87183e-14 2.87244e-14 89.6104 51.0502 -12.7109 -15.9637 -8.65355 29.596 -0.0731026 7.69105 1.08751 -4.46722e-10 4.90136e-10 7.34358e-11 -7.70952e-10 8.42907e-10 1.30105e-10 -4.46716e-10 4.90139e-10 7.34199e-11 7.73091 5.47488 0.417314 -4.46718e-10 4.90126e-10 7.3439e-11 2.90554 0.965183 0.102902 -4.46715e-10 4.90131e-10 7.34287e-11 10.2786 0.731801 0.0259123 -4.46727e-10 4.90128e-10 7.34326e-11 2.22167 -0.733487 -0.20892 2.68921e-15 -7.87207e-14 2.85256e-14 -85.3976 42.5819 8.86286 16.1634 -8.83983 -30.0182 0.285622 15.0375 -2.16379 5.15631e-11 -2.41229e-10 -2.76606e-10 8.44561e-11 -4.23046e-10 -4.79526e-10 5.15548e-11 -2.41228e-10 -2.76584e-10 -7.73091 5.47488 -0.417314 5.15633e-11 -2.4123e-10 -2.76606e-10 -2.90554 0.965183 -0.102902 5.15552e-11 -2.41232e-10 -2.76606e-10 -10.2786 0.731801 -0.0259123 5.15687e-11 -2.41233e-10 -2.76616e-10 -2.22167 -0.733487 0.20892 -2.03217e-16 0.0 -3.88251e-19 9.02493 -9.66281 15.597 -0.0499838 30.7591 0.779555 -15.6887 -18.3236 -35.5367 2.03217e-16 0.0 3.88251e-19 -6.55165 -8.41115 -24.0587 0.143829 25.9435 -0.659009 7.5185 -17.5586 17.2597
48.7701 84.7664 245.447 -179.779 -5.0883 177.923 5.2798 5.16841 4.43978 -1.58779 -8.75512 1.35281 7.40093 11.9388 18.339 -10.613 -7.75188 33.0836 -0.0 0.0 0.0 -0.0 0.0 0.0 1.33817e-14 -6.66927e-14 2.40689e-14 97.5084 54.3716 -14.8887 -16.748 -9.06491 31.7177 -0.092766 8.39204 1.18856 -3.0598e-10 2.68426e-10 8.35887e-11 -5.27482e-10 4.60349e-10 1.46596e-10 -3.05975e-10 2.68428e-10 8.3576e-11 7.73091 5.47488 0.417314 -3.05976e-10 2.68416e-10 8.35937e-11 2.90554 0.965183 0.102902 -3.05974e-10 2.68421e-10 8.35834e-11 10.2786 0.731801 0.0259123 -3.05985e-10 2.68419e-10 8.3588e-11 2.22167 -0.733487 -0.20892 1.31395e-14 -6.66954e-14 2.38464e-14 -92.1084 45.3944 10.0495 16.9539 -9.25789 -32.1816 0.345072 15.9804 -2.3106 -6.21283e-11 -3.47885e-10 -3.04486e-10 -1.12405e-10 -6.06341e-10 -5.26244e-10 -6.21354e-11 -3.47884e-10 -3.04464e-10 -7.73091 5.47488 -0.417314 -6.2128e-11 -3.47885e-10 -3.04485e-10 -2.90554 0.965183 -0.102902 -6.21355e-11 -3.47886e-10 -3.04486e-10 -10.2786 0.731801 -0.0259123 -6.2124e-11 -3.47887e-10 -3.04496e-10 -2.22167 -0.733487 0.20892 -2.03217e-16 0.0 -3.88251e-19 9.47931 -10.0433 16.8123 -0.0756029 32.2854 0.830938 -17.4159 -18.9013 -38.0328 2.03217e-16 0.0 3.88251e-19 -7.35017 -8.96757 -25.713 0.18235 27.8007 -0.720976 8.54538 -18.9136 18.6863
